# xmcd
#
# Track frame offsets: 
#        150
#        18897
#        43425
#        59641
#        84194
#        104469
#        118905
#        136184
#        150544
#        168204
#        187141
#        204451
#        223067
#        240065
#        258988
#        275406
#        296048
#        318364
#
# Disc length: 4487 seconds
#
# Revision: 0
# Processed by: cddbd v1.5.2PL0 Copyright (c) Steve Scherf et al.
# Submitted via: ExactAudioCopy v0.95b4
#
DISCID=05118512
DTITLE=Various Artist - Тебе, Любимая! 5
DYEAR=2007
DGENRE=Chanson
TTITLE0=Круг Михаил/Ностальгия О Будущей Любви
TTITLE1=Наговицын Сергей/Любимой Посвящается
TTITLE2=Высоцкий Владимир/Лирическая Пенся
TTITLE3=Бутырка/Два полюса
TTITLE4=Петлюра/Я Опускаюсь На Колени
TTITLE5=Трофим/Эх, Родная
TTITLE6=Карат Андрей/Налейте Мне Вина
TTITLE7=Бобков Слава/Зачем Всё Это?
TTITLE8=Лифановский Олег/Фонтаны
TTITLE9=Звинцов Александр/Я Вернусь
TTITLE10=Мафик/Лестница
TTITLE11=Заря Андрей/Кто Виноват (& Никольская Наталья)
TTITLE12=Ром Александр/Белокурая Сирень
TTITLE13=Север Сергей/А Птицы Спать Нам Не Давали
TTITLE14=Кузнецов Александр/Весна На Заречной
TTITLE15=Амирамов Ефрем/Крошка
TTITLE16=Степин Алексей/Омут Серых Глаз
TTITLE17=Круг Михаил/Давай поговорим
EXTD=
EXTT0=
EXTT1=
EXTT2=
EXTT3=
EXTT4=
EXTT5=
EXTT6=
EXTT7=
EXTT8=
EXTT9=
EXTT10=
EXTT11=
EXTT12=
EXTT13=
EXTT14=
EXTT15=
EXTT16=
EXTT17=
PLAYORDER=
